<mxfile host="app.diagrams.net" modified="2024-09-24T20:27:27.671Z" agent="Mozilla/5.0 (Windows NT 10.0; Win64; x64) AppleWebKit/537.36 (KHTML, like Gecko) Chrome/129.0.0.0 Safari/537.36" etag="-YnvgIYwfJI2hc2a9BjT" version="24.2.7" type="device" pages="3">
  <diagram name="FlowerLogic" id="JjPMWJ2Ls_Jt1AWlveAf">
    <mxGraphModel dx="1029" dy="1047" grid="1" gridSize="10" guides="1" tooltips="1" connect="1" arrows="1" fold="1" page="1" pageScale="1" pageWidth="850" pageHeight="1100" math="0" shadow="0">
      <root>
        <mxCell id="0" />
        <mxCell id="1" parent="0" />
        <mxCell id="4mTPo-9cd06hOeSTWkM8-73" value="" style="group" vertex="1" connectable="0" parent="1">
          <mxGeometry x="70" y="60" width="710" height="960" as="geometry" />
        </mxCell>
        <mxCell id="4mTPo-9cd06hOeSTWkM8-1" value="&lt;font style=&quot;font-size: 45px;&quot;&gt;Kindness Flowers Basic Logic&lt;/font&gt;" style="text;html=1;align=center;verticalAlign=middle;whiteSpace=wrap;rounded=0;fontSize=32;fontStyle=1" vertex="1" parent="4mTPo-9cd06hOeSTWkM8-73">
          <mxGeometry x="280" y="28" width="420" height="56" as="geometry" />
        </mxCell>
        <mxCell id="4mTPo-9cd06hOeSTWkM8-68" value="" style="edgeStyle=orthogonalEdgeStyle;rounded=0;orthogonalLoop=1;jettySize=auto;html=1;" edge="1" parent="4mTPo-9cd06hOeSTWkM8-73" source="4mTPo-9cd06hOeSTWkM8-3" target="4mTPo-9cd06hOeSTWkM8-7">
          <mxGeometry relative="1" as="geometry" />
        </mxCell>
        <mxCell id="4mTPo-9cd06hOeSTWkM8-3" value="Flower Startup" style="rounded=1;whiteSpace=wrap;html=1;fontSize=14;" vertex="1" parent="4mTPo-9cd06hOeSTWkM8-73">
          <mxGeometry x="52.5" width="120" height="60" as="geometry" />
        </mxCell>
        <mxCell id="4mTPo-9cd06hOeSTWkM8-70" value="" style="edgeStyle=orthogonalEdgeStyle;rounded=0;orthogonalLoop=1;jettySize=auto;html=1;" edge="1" parent="4mTPo-9cd06hOeSTWkM8-73" source="4mTPo-9cd06hOeSTWkM8-7" target="4mTPo-9cd06hOeSTWkM8-66">
          <mxGeometry relative="1" as="geometry" />
        </mxCell>
        <mxCell id="4mTPo-9cd06hOeSTWkM8-7" value="&lt;font style=&quot;font-size: 14px;&quot;&gt;Load calibration numbers to set a threshold for each sensor&lt;/font&gt;" style="rounded=0;whiteSpace=wrap;html=1;fontSize=14;" vertex="1" parent="4mTPo-9cd06hOeSTWkM8-73">
          <mxGeometry x="14" y="84" width="197" height="70" as="geometry" />
        </mxCell>
        <mxCell id="4mTPo-9cd06hOeSTWkM8-32" style="edgeStyle=orthogonalEdgeStyle;rounded=0;orthogonalLoop=1;jettySize=auto;html=1;exitX=0.5;exitY=1;exitDx=0;exitDy=0;entryX=0.5;entryY=0;entryDx=0;entryDy=0;" edge="1" parent="4mTPo-9cd06hOeSTWkM8-73" source="4mTPo-9cd06hOeSTWkM8-9" target="4mTPo-9cd06hOeSTWkM8-11">
          <mxGeometry relative="1" as="geometry" />
        </mxCell>
        <mxCell id="4mTPo-9cd06hOeSTWkM8-9" value="&lt;font style=&quot;font-size: 14px;&quot;&gt;Read all 4 pressure&lt;/font&gt;&lt;div&gt;&lt;font style=&quot;font-size: 14px;&quot;&gt;sensor values&lt;/font&gt;&lt;/div&gt;" style="rounded=0;whiteSpace=wrap;html=1;fontSize=14;" vertex="1" parent="4mTPo-9cd06hOeSTWkM8-73">
          <mxGeometry x="41" y="261" width="143" height="70" as="geometry" />
        </mxCell>
        <mxCell id="4mTPo-9cd06hOeSTWkM8-11" value="Is value above the&lt;div&gt;grip threshold?&lt;/div&gt;" style="rhombus;whiteSpace=wrap;html=1;fontSize=14;" vertex="1" parent="4mTPo-9cd06hOeSTWkM8-73">
          <mxGeometry x="37.5" y="351" width="150" height="140" as="geometry" />
        </mxCell>
        <mxCell id="4mTPo-9cd06hOeSTWkM8-12" value="" style="endArrow=classic;html=1;rounded=0;exitX=0.5;exitY=1;exitDx=0;exitDy=0;entryX=0.5;entryY=0;entryDx=0;entryDy=0;" edge="1" parent="4mTPo-9cd06hOeSTWkM8-73" source="4mTPo-9cd06hOeSTWkM8-11" target="4mTPo-9cd06hOeSTWkM8-17">
          <mxGeometry relative="1" as="geometry">
            <mxPoint x="214" y="421" as="sourcePoint" />
            <mxPoint x="113" y="591" as="targetPoint" />
          </mxGeometry>
        </mxCell>
        <mxCell id="4mTPo-9cd06hOeSTWkM8-13" value="Yes" style="edgeLabel;resizable=0;html=1;;align=center;verticalAlign=middle;fontSize=14;" connectable="0" vertex="1" parent="4mTPo-9cd06hOeSTWkM8-12">
          <mxGeometry relative="1" as="geometry" />
        </mxCell>
        <mxCell id="4mTPo-9cd06hOeSTWkM8-14" value="" style="endArrow=classic;html=1;rounded=0;entryX=0.5;entryY=0;entryDx=0;entryDy=0;exitX=1;exitY=0.5;exitDx=0;exitDy=0;" edge="1" parent="4mTPo-9cd06hOeSTWkM8-73" source="4mTPo-9cd06hOeSTWkM8-11" target="4mTPo-9cd06hOeSTWkM8-19">
          <mxGeometry relative="1" as="geometry">
            <mxPoint x="274" y="441" as="sourcePoint" />
            <mxPoint x="321.9999999999999" y="468.5" as="targetPoint" />
            <Array as="points">
              <mxPoint x="277.5" y="421" />
            </Array>
          </mxGeometry>
        </mxCell>
        <mxCell id="4mTPo-9cd06hOeSTWkM8-15" value="No" style="edgeLabel;resizable=0;html=1;;align=center;verticalAlign=middle;fontSize=14;" connectable="0" vertex="1" parent="4mTPo-9cd06hOeSTWkM8-14">
          <mxGeometry relative="1" as="geometry" />
        </mxCell>
        <mxCell id="4mTPo-9cd06hOeSTWkM8-24" style="edgeStyle=orthogonalEdgeStyle;rounded=0;orthogonalLoop=1;jettySize=auto;html=1;exitX=0.5;exitY=1;exitDx=0;exitDy=0;entryX=0.5;entryY=0;entryDx=0;entryDy=0;" edge="1" parent="4mTPo-9cd06hOeSTWkM8-73" source="4mTPo-9cd06hOeSTWkM8-17" target="4mTPo-9cd06hOeSTWkM8-21">
          <mxGeometry relative="1" as="geometry" />
        </mxCell>
        <mxCell id="4mTPo-9cd06hOeSTWkM8-17" value="Set &quot;isPadPressed&quot;&lt;div&gt;to True&lt;/div&gt;" style="rounded=0;whiteSpace=wrap;html=1;fontSize=14;" vertex="1" parent="4mTPo-9cd06hOeSTWkM8-73">
          <mxGeometry x="41" y="529" width="143" height="69" as="geometry" />
        </mxCell>
        <mxCell id="4mTPo-9cd06hOeSTWkM8-23" style="edgeStyle=orthogonalEdgeStyle;rounded=0;orthogonalLoop=1;jettySize=auto;html=1;exitX=0.5;exitY=1;exitDx=0;exitDy=0;entryX=1;entryY=0.5;entryDx=0;entryDy=0;" edge="1" parent="4mTPo-9cd06hOeSTWkM8-73" source="4mTPo-9cd06hOeSTWkM8-19" target="4mTPo-9cd06hOeSTWkM8-21">
          <mxGeometry relative="1" as="geometry" />
        </mxCell>
        <mxCell id="4mTPo-9cd06hOeSTWkM8-19" value="Set &quot;isPadPressed&quot;&lt;div&gt;to True&lt;/div&gt;" style="rounded=0;whiteSpace=wrap;html=1;fontSize=14;" vertex="1" parent="4mTPo-9cd06hOeSTWkM8-73">
          <mxGeometry x="205.5" y="528" width="143" height="70" as="geometry" />
        </mxCell>
        <mxCell id="4mTPo-9cd06hOeSTWkM8-36" style="edgeStyle=orthogonalEdgeStyle;rounded=0;orthogonalLoop=1;jettySize=auto;html=1;exitX=0.5;exitY=1;exitDx=0;exitDy=0;entryX=0.5;entryY=0;entryDx=0;entryDy=0;" edge="1" parent="4mTPo-9cd06hOeSTWkM8-73" source="4mTPo-9cd06hOeSTWkM8-21" target="4mTPo-9cd06hOeSTWkM8-34">
          <mxGeometry relative="1" as="geometry" />
        </mxCell>
        <mxCell id="4mTPo-9cd06hOeSTWkM8-21" value="Repeat for all&lt;div&gt;four sensors&lt;/div&gt;" style="rounded=0;whiteSpace=wrap;html=1;fontSize=14;" vertex="1" parent="4mTPo-9cd06hOeSTWkM8-73">
          <mxGeometry x="61" y="621" width="103" height="70" as="geometry" />
        </mxCell>
        <mxCell id="4mTPo-9cd06hOeSTWkM8-34" value="Are all&lt;div&gt;pads pressed?&lt;/div&gt;" style="rhombus;whiteSpace=wrap;html=1;fontSize=14;" vertex="1" parent="4mTPo-9cd06hOeSTWkM8-73">
          <mxGeometry x="47.5" y="711" width="130" height="100" as="geometry" />
        </mxCell>
        <mxCell id="4mTPo-9cd06hOeSTWkM8-35" value="Has it been over&lt;div&gt;30 seconds&amp;nbsp;&lt;/div&gt;&lt;div&gt;since last press?&lt;/div&gt;" style="rhombus;whiteSpace=wrap;html=1;fontSize=14;" vertex="1" parent="4mTPo-9cd06hOeSTWkM8-73">
          <mxGeometry x="474.5" y="193" width="160" height="140" as="geometry" />
        </mxCell>
        <mxCell id="4mTPo-9cd06hOeSTWkM8-38" value="" style="endArrow=classic;html=1;rounded=0;entryX=0.5;entryY=0;entryDx=0;entryDy=0;" edge="1" parent="4mTPo-9cd06hOeSTWkM8-73" target="4mTPo-9cd06hOeSTWkM8-40">
          <mxGeometry relative="1" as="geometry">
            <mxPoint x="112.5" y="811" as="sourcePoint" />
            <mxPoint x="112.5" y="851" as="targetPoint" />
          </mxGeometry>
        </mxCell>
        <mxCell id="4mTPo-9cd06hOeSTWkM8-39" value="Yes" style="edgeLabel;resizable=0;html=1;;align=center;verticalAlign=middle;fontSize=14;" connectable="0" vertex="1" parent="4mTPo-9cd06hOeSTWkM8-38">
          <mxGeometry relative="1" as="geometry" />
        </mxCell>
        <mxCell id="4mTPo-9cd06hOeSTWkM8-45" style="edgeStyle=orthogonalEdgeStyle;rounded=0;orthogonalLoop=1;jettySize=auto;html=1;entryX=0.5;entryY=0;entryDx=0;entryDy=0;exitX=1;exitY=0.5;exitDx=0;exitDy=0;" edge="1" parent="4mTPo-9cd06hOeSTWkM8-73" source="4mTPo-9cd06hOeSTWkM8-40" target="4mTPo-9cd06hOeSTWkM8-35">
          <mxGeometry relative="1" as="geometry">
            <mxPoint x="240" y="880" as="sourcePoint" />
            <Array as="points">
              <mxPoint x="400" y="886" />
              <mxPoint x="400" y="160" />
              <mxPoint x="554" y="160" />
            </Array>
          </mxGeometry>
        </mxCell>
        <mxCell id="4mTPo-9cd06hOeSTWkM8-40" value="Show Rainbow&lt;div&gt;Effect!&lt;/div&gt;" style="rounded=0;whiteSpace=wrap;html=1;fontSize=14;" vertex="1" parent="4mTPo-9cd06hOeSTWkM8-73">
          <mxGeometry x="61" y="851" width="103" height="70" as="geometry" />
        </mxCell>
        <mxCell id="4mTPo-9cd06hOeSTWkM8-42" value="Light up segments where the sensors are pressed." style="rounded=0;whiteSpace=wrap;html=1;fontSize=14;" vertex="1" parent="4mTPo-9cd06hOeSTWkM8-73">
          <mxGeometry x="223.5" y="726" width="130" height="70" as="geometry" />
        </mxCell>
        <mxCell id="4mTPo-9cd06hOeSTWkM8-43" value="" style="endArrow=classic;html=1;rounded=0;entryX=0;entryY=0.5;entryDx=0;entryDy=0;exitX=1;exitY=0.5;exitDx=0;exitDy=0;" edge="1" parent="4mTPo-9cd06hOeSTWkM8-73" source="4mTPo-9cd06hOeSTWkM8-34" target="4mTPo-9cd06hOeSTWkM8-42">
          <mxGeometry relative="1" as="geometry">
            <mxPoint x="122.5" y="821" as="sourcePoint" />
            <mxPoint x="122.5" y="861" as="targetPoint" />
          </mxGeometry>
        </mxCell>
        <mxCell id="4mTPo-9cd06hOeSTWkM8-44" value="No" style="edgeLabel;resizable=0;html=1;;align=center;verticalAlign=middle;fontSize=14;" connectable="0" vertex="1" parent="4mTPo-9cd06hOeSTWkM8-43">
          <mxGeometry relative="1" as="geometry" />
        </mxCell>
        <mxCell id="4mTPo-9cd06hOeSTWkM8-48" value="" style="endArrow=classic;html=1;rounded=0;exitX=0.5;exitY=1;exitDx=0;exitDy=0;entryX=0.5;entryY=0;entryDx=0;entryDy=0;" edge="1" parent="4mTPo-9cd06hOeSTWkM8-73" source="4mTPo-9cd06hOeSTWkM8-35" target="4mTPo-9cd06hOeSTWkM8-52">
          <mxGeometry relative="1" as="geometry">
            <mxPoint x="554.0799999999999" y="373" as="sourcePoint" />
            <mxPoint x="554.5" y="383" as="targetPoint" />
          </mxGeometry>
        </mxCell>
        <mxCell id="4mTPo-9cd06hOeSTWkM8-49" value="Yes" style="edgeLabel;resizable=0;html=1;;align=center;verticalAlign=middle;fontSize=14;" connectable="0" vertex="1" parent="4mTPo-9cd06hOeSTWkM8-48">
          <mxGeometry relative="1" as="geometry" />
        </mxCell>
        <mxCell id="4mTPo-9cd06hOeSTWkM8-50" value="" style="endArrow=classic;html=1;rounded=0;exitX=1;exitY=0.5;exitDx=0;exitDy=0;" edge="1" parent="4mTPo-9cd06hOeSTWkM8-73" source="4mTPo-9cd06hOeSTWkM8-35">
          <mxGeometry relative="1" as="geometry">
            <mxPoint x="654.5" y="290.0000000000001" as="sourcePoint" />
            <mxPoint x="554.5" y="560" as="targetPoint" />
            <Array as="points">
              <mxPoint x="704.5" y="263" />
              <mxPoint x="704.5" y="560" />
            </Array>
          </mxGeometry>
        </mxCell>
        <mxCell id="4mTPo-9cd06hOeSTWkM8-51" value="No" style="edgeLabel;resizable=0;html=1;;align=center;verticalAlign=middle;fontSize=14;" connectable="0" vertex="1" parent="4mTPo-9cd06hOeSTWkM8-50">
          <mxGeometry relative="1" as="geometry" />
        </mxCell>
        <mxCell id="4mTPo-9cd06hOeSTWkM8-52" value="Add 1 to the&lt;div&gt;total pass count.&lt;/div&gt;" style="rounded=0;whiteSpace=wrap;html=1;fontSize=14;" vertex="1" parent="4mTPo-9cd06hOeSTWkM8-73">
          <mxGeometry x="483" y="381" width="143" height="70" as="geometry" />
        </mxCell>
        <mxCell id="4mTPo-9cd06hOeSTWkM8-56" value="" style="edgeStyle=orthogonalEdgeStyle;rounded=0;orthogonalLoop=1;jettySize=auto;html=1;exitX=0.5;exitY=1;exitDx=0;exitDy=0;" edge="1" parent="4mTPo-9cd06hOeSTWkM8-73" source="4mTPo-9cd06hOeSTWkM8-52" target="4mTPo-9cd06hOeSTWkM8-55">
          <mxGeometry relative="1" as="geometry">
            <mxPoint x="554.5" y="601" as="sourcePoint" />
          </mxGeometry>
        </mxCell>
        <mxCell id="4mTPo-9cd06hOeSTWkM8-58" value="" style="edgeStyle=orthogonalEdgeStyle;rounded=0;orthogonalLoop=1;jettySize=auto;html=1;" edge="1" parent="4mTPo-9cd06hOeSTWkM8-73" source="4mTPo-9cd06hOeSTWkM8-55" target="4mTPo-9cd06hOeSTWkM8-57">
          <mxGeometry relative="1" as="geometry" />
        </mxCell>
        <mxCell id="4mTPo-9cd06hOeSTWkM8-55" value="Send the total&lt;div&gt;pass count to Adafruit&lt;/div&gt;" style="shape=parallelogram;perimeter=parallelogramPerimeter;whiteSpace=wrap;html=1;fixedSize=1;fontSize=14;rounded=0;" vertex="1" parent="4mTPo-9cd06hOeSTWkM8-73">
          <mxGeometry x="464.5" y="481" width="180" height="60" as="geometry" />
        </mxCell>
        <mxCell id="4mTPo-9cd06hOeSTWkM8-57" value="Has it been over&lt;div&gt;&amp;nbsp;5 minutes since&lt;/div&gt;&lt;div&gt;the total count&lt;/div&gt;&lt;div&gt;has gone up?&lt;/div&gt;" style="rhombus;whiteSpace=wrap;html=1;fontSize=14;rounded=0;" vertex="1" parent="4mTPo-9cd06hOeSTWkM8-73">
          <mxGeometry x="467.5" y="586" width="174" height="174" as="geometry" />
        </mxCell>
        <mxCell id="4mTPo-9cd06hOeSTWkM8-59" value="" style="endArrow=classic;html=1;rounded=0;exitX=1;exitY=0.5;exitDx=0;exitDy=0;" edge="1" parent="4mTPo-9cd06hOeSTWkM8-73" source="4mTPo-9cd06hOeSTWkM8-57">
          <mxGeometry relative="1" as="geometry">
            <mxPoint x="664.5" y="664" as="sourcePoint" />
            <mxPoint x="555" y="910" as="targetPoint" />
            <Array as="points">
              <mxPoint x="710" y="673" />
              <mxPoint x="710" y="910" />
            </Array>
          </mxGeometry>
        </mxCell>
        <mxCell id="4mTPo-9cd06hOeSTWkM8-60" value="No" style="edgeLabel;resizable=0;html=1;;align=center;verticalAlign=middle;fontSize=14;" connectable="0" vertex="1" parent="4mTPo-9cd06hOeSTWkM8-59">
          <mxGeometry relative="1" as="geometry" />
        </mxCell>
        <mxCell id="4mTPo-9cd06hOeSTWkM8-61" value="" style="endArrow=classic;html=1;rounded=0;exitX=0.5;exitY=1;exitDx=0;exitDy=0;entryX=0.5;entryY=0;entryDx=0;entryDy=0;" edge="1" parent="4mTPo-9cd06hOeSTWkM8-73" source="4mTPo-9cd06hOeSTWkM8-57" target="4mTPo-9cd06hOeSTWkM8-63">
          <mxGeometry relative="1" as="geometry">
            <mxPoint x="554.08" y="764" as="sourcePoint" />
            <mxPoint x="554.08" y="834" as="targetPoint" />
          </mxGeometry>
        </mxCell>
        <mxCell id="4mTPo-9cd06hOeSTWkM8-62" value="Yes" style="edgeLabel;resizable=0;html=1;;align=center;verticalAlign=middle;fontSize=14;" connectable="0" vertex="1" parent="4mTPo-9cd06hOeSTWkM8-61">
          <mxGeometry relative="1" as="geometry" />
        </mxCell>
        <mxCell id="4mTPo-9cd06hOeSTWkM8-69" style="edgeStyle=orthogonalEdgeStyle;rounded=0;orthogonalLoop=1;jettySize=auto;html=1;exitX=0.5;exitY=1;exitDx=0;exitDy=0;entryX=0;entryY=0.5;entryDx=0;entryDy=0;" edge="1" parent="4mTPo-9cd06hOeSTWkM8-73" source="4mTPo-9cd06hOeSTWkM8-63" target="4mTPo-9cd06hOeSTWkM8-9">
          <mxGeometry relative="1" as="geometry">
            <Array as="points">
              <mxPoint x="554" y="960" />
              <mxPoint y="960" />
              <mxPoint y="296" />
            </Array>
          </mxGeometry>
        </mxCell>
        <mxCell id="4mTPo-9cd06hOeSTWkM8-63" value="Send current total&lt;div&gt;passes to Adafruit&lt;/div&gt;" style="shape=parallelogram;perimeter=parallelogramPerimeter;whiteSpace=wrap;html=1;fixedSize=1;fontSize=14;rounded=0;" vertex="1" parent="4mTPo-9cd06hOeSTWkM8-73">
          <mxGeometry x="464.5" y="809" width="180" height="60" as="geometry" />
        </mxCell>
        <mxCell id="4mTPo-9cd06hOeSTWkM8-72" style="edgeStyle=orthogonalEdgeStyle;rounded=0;orthogonalLoop=1;jettySize=auto;html=1;exitX=0.5;exitY=1;exitDx=0;exitDy=0;entryX=0.5;entryY=0;entryDx=0;entryDy=0;" edge="1" parent="4mTPo-9cd06hOeSTWkM8-73" source="4mTPo-9cd06hOeSTWkM8-66">
          <mxGeometry relative="1" as="geometry">
            <mxPoint x="112.5" y="259" as="targetPoint" />
          </mxGeometry>
        </mxCell>
        <mxCell id="4mTPo-9cd06hOeSTWkM8-66" value="Light all LEDs to make&lt;div&gt;sure they work&lt;/div&gt;" style="shape=parallelogram;perimeter=parallelogramPerimeter;whiteSpace=wrap;html=1;fixedSize=1;fontSize=14;rounded=0;" vertex="1" parent="4mTPo-9cd06hOeSTWkM8-73">
          <mxGeometry x="22.5" y="178" width="180" height="60" as="geometry" />
        </mxCell>
      </root>
    </mxGraphModel>
  </diagram>
  <diagram name="BaseLogic" id="VUl_Lp_xMmhS53PX2SRP">
    <mxGraphModel dx="772" dy="785" grid="1" gridSize="10" guides="1" tooltips="1" connect="1" arrows="1" fold="1" page="1" pageScale="1" pageWidth="850" pageHeight="1100" math="0" shadow="0">
      <root>
        <mxCell id="pckIV913CompsdE5iTZD-0" />
        <mxCell id="pckIV913CompsdE5iTZD-1" parent="pckIV913CompsdE5iTZD-0" />
        <mxCell id="pckIV913CompsdE5iTZD-3" value="&lt;span style=&quot;font-size: 45px;&quot;&gt;Flower Base Logic&lt;/span&gt;" style="text;html=1;align=center;verticalAlign=middle;whiteSpace=wrap;rounded=0;fontSize=32;fontStyle=1" vertex="1" parent="pckIV913CompsdE5iTZD-1">
          <mxGeometry x="350" y="88" width="420" height="56" as="geometry" />
        </mxCell>
        <mxCell id="pckIV913CompsdE5iTZD-4" value="" style="edgeStyle=orthogonalEdgeStyle;rounded=0;orthogonalLoop=1;jettySize=auto;html=1;" edge="1" parent="pckIV913CompsdE5iTZD-1" source="pckIV913CompsdE5iTZD-5" target="pckIV913CompsdE5iTZD-7">
          <mxGeometry relative="1" as="geometry" />
        </mxCell>
        <mxCell id="pckIV913CompsdE5iTZD-5" value="Base&amp;nbsp;&lt;div&gt;Startup&lt;/div&gt;" style="rounded=1;whiteSpace=wrap;html=1;fontSize=14;" vertex="1" parent="pckIV913CompsdE5iTZD-1">
          <mxGeometry x="122.5" y="60" width="120" height="60" as="geometry" />
        </mxCell>
        <mxCell id="pckIV913CompsdE5iTZD-7" value="Subscribe to all flower&lt;div&gt;feeds on Adafruit&lt;/div&gt;" style="rounded=0;whiteSpace=wrap;html=1;fontSize=14;" vertex="1" parent="pckIV913CompsdE5iTZD-1">
          <mxGeometry x="84" y="144" width="197" height="70" as="geometry" />
        </mxCell>
        <mxCell id="_48hNNk1uCNzCKEGz68F-4" value="Is there new subcription info coming in?" style="rhombus;whiteSpace=wrap;html=1;fontSize=14;rounded=0;" vertex="1" parent="pckIV913CompsdE5iTZD-1">
          <mxGeometry x="121.5" y="248" width="122" height="122" as="geometry" />
        </mxCell>
        <mxCell id="_48hNNk1uCNzCKEGz68F-13" style="edgeStyle=orthogonalEdgeStyle;rounded=0;orthogonalLoop=1;jettySize=auto;html=1;exitX=0.5;exitY=1;exitDx=0;exitDy=0;entryX=0.5;entryY=0;entryDx=0;entryDy=0;" edge="1" parent="pckIV913CompsdE5iTZD-1" source="_48hNNk1uCNzCKEGz68F-6" target="_48hNNk1uCNzCKEGz68F-10">
          <mxGeometry relative="1" as="geometry" />
        </mxCell>
        <mxCell id="_48hNNk1uCNzCKEGz68F-6" value="Figure out which flower it is coming from." style="whiteSpace=wrap;html=1;fontSize=14;rounded=0;" vertex="1" parent="pckIV913CompsdE5iTZD-1">
          <mxGeometry x="105" y="424" width="155" height="60" as="geometry" />
        </mxCell>
        <mxCell id="_48hNNk1uCNzCKEGz68F-8" value="" style="endArrow=classic;html=1;rounded=0;exitX=0.5;exitY=1;exitDx=0;exitDy=0;entryX=0.5;entryY=0;entryDx=0;entryDy=0;" edge="1" parent="pckIV913CompsdE5iTZD-1" source="_48hNNk1uCNzCKEGz68F-4" target="_48hNNk1uCNzCKEGz68F-6">
          <mxGeometry relative="1" as="geometry">
            <mxPoint x="330" y="380" as="sourcePoint" />
            <mxPoint x="430" y="380" as="targetPoint" />
          </mxGeometry>
        </mxCell>
        <mxCell id="_48hNNk1uCNzCKEGz68F-9" value="&lt;font style=&quot;font-size: 14px;&quot;&gt;Yes&lt;/font&gt;" style="edgeLabel;resizable=0;html=1;;align=center;verticalAlign=middle;" connectable="0" vertex="1" parent="_48hNNk1uCNzCKEGz68F-8">
          <mxGeometry relative="1" as="geometry" />
        </mxCell>
        <mxCell id="_48hNNk1uCNzCKEGz68F-10" value="Update the flower count for the appropriate flower." style="whiteSpace=wrap;html=1;fontSize=14;rounded=0;" vertex="1" parent="pckIV913CompsdE5iTZD-1">
          <mxGeometry x="95" y="520" width="175" height="60" as="geometry" />
        </mxCell>
        <mxCell id="_48hNNk1uCNzCKEGz68F-14" value="Add all of the flower counts together." style="whiteSpace=wrap;html=1;fontSize=14;rounded=0;" vertex="1" parent="pckIV913CompsdE5iTZD-1">
          <mxGeometry x="105" y="610" width="155" height="60" as="geometry" />
        </mxCell>
      </root>
    </mxGraphModel>
  </diagram>
  <diagram id="Ccswp3nXS_iAAnSXosIh" name="CalibrationLogic">
    <mxGraphModel dx="772" dy="785" grid="1" gridSize="10" guides="1" tooltips="1" connect="1" arrows="1" fold="1" page="1" pageScale="1" pageWidth="850" pageHeight="1100" math="0" shadow="0">
      <root>
        <mxCell id="0" />
        <mxCell id="1" parent="0" />
      </root>
    </mxGraphModel>
  </diagram>
</mxfile>
